<?xml version="1.0" encoding="UTF-8"?>
<svg id="Layer_1" data-name="Layer 1" xmlns="http://www.w3.org/2000/svg" xmlns:xlink="http://www.w3.org/1999/xlink" viewBox="0 0 1280 1280">
  <defs>
    <style>
      .cls-1 {
        fill: url(#linear-gradient-15);
      }

      .cls-1, .cls-2, .cls-3, .cls-4, .cls-5, .cls-6, .cls-7, .cls-8, .cls-9, .cls-10, .cls-11, .cls-12, .cls-13, .cls-14, .cls-15, .cls-16, .cls-17, .cls-18, .cls-19, .cls-20, .cls-21, .cls-22, .cls-23, .cls-24, .cls-25, .cls-26, .cls-27, .cls-28, .cls-29 {
        stroke: #000;
        stroke-linecap: round;
        stroke-linejoin: round;
        stroke-width: .71px;
      }

      .cls-2 {
        fill: url(#linear-gradient-14);
      }

      .cls-3 {
        fill: url(#radial-gradient-3);
      }

      .cls-4 {
        fill: url(#radial-gradient-11);
      }

      .cls-5 {
        fill: url(#radial-gradient-9);
      }

      .cls-6 {
        fill: url(#linear-gradient-6);
      }

      .cls-7 {
        fill: url(#radial-gradient-2);
      }

      .cls-8 {
        fill: url(#linear-gradient-16);
      }

      .cls-30 {
        stroke-width: 0px;
      }

      .cls-9 {
        fill: url(#linear-gradient-8);
      }

      .cls-10 {
        fill: url(#linear-gradient-13);
      }

      .cls-11 {
        fill: url(#radial-gradient-10);
      }

      .cls-12 {
        fill: url(#radial-gradient-5);
      }

      .cls-13 {
        fill: url(#linear-gradient-12);
      }

      .cls-14 {
        fill: url(#linear-gradient-11);
      }

      .cls-15 {
        fill: url(#radial-gradient);
      }

      .cls-16 {
        fill: url(#linear-gradient-10);
      }

      .cls-17 {
        fill: url(#linear-gradient-3);
      }

      .cls-18 {
        fill: url(#radial-gradient-8);
      }

      .cls-19 {
        fill: url(#radial-gradient-4);
      }

      .cls-20 {
        fill: url(#radial-gradient-13);
      }

      .cls-21 {
        fill: url(#linear-gradient-9);
      }

      .cls-22 {
        fill: url(#linear-gradient-7);
      }

      .cls-23 {
        fill: url(#radial-gradient-6);
      }

      .cls-24 {
        fill: url(#linear-gradient-5);
      }

      .cls-25 {
        fill: url(#linear-gradient-2);
      }

      .cls-26 {
        fill: url(#linear-gradient);
      }

      .cls-27 {
        fill: url(#radial-gradient-7);
      }

      .cls-28 {
        fill: url(#radial-gradient-12);
      }

      .cls-29 {
        fill: url(#linear-gradient-4);
      }
    </style>
    <radialGradient id="radial-gradient" cx="492.39" cy="751.83" fx="492.39" fy="751.83" r="50.06" gradientTransform="translate(-.06 -3.73)" gradientUnits="userSpaceOnUse">
      <stop offset="0" stop-color="#fff"/>
      <stop offset="1" stop-color="#bbb8b2"/>
    </radialGradient>
    <radialGradient id="radial-gradient-2" cx="450.28" cy="859.11" fx="450.28" fy="859.11" r="14.66" xlink:href="#radial-gradient"/>
    <radialGradient id="radial-gradient-3" cx="589.07" cy="720.96" fx="589.07" fy="720.96" r="16.98" xlink:href="#radial-gradient"/>
    <radialGradient id="radial-gradient-4" cx="524.6" cy="682.52" fx="524.6" fy="682.52" r="12.75" xlink:href="#radial-gradient"/>
    <radialGradient id="radial-gradient-5" cx="447.41" cy="760.04" fx="447.41" fy="760.04" r="9.86" xlink:href="#radial-gradient"/>
    <radialGradient id="radial-gradient-6" cx="640.56" cy="794.41" fx="640.56" fy="794.41" r="278.28" xlink:href="#radial-gradient"/>
    <radialGradient id="radial-gradient-7" cx="788.73" fx="788.73" r="50.07" xlink:href="#radial-gradient"/>
    <radialGradient id="radial-gradient-8" cx="830.85" cy="859.11" fx="830.85" fy="859.11" r="14.66" xlink:href="#radial-gradient"/>
    <radialGradient id="radial-gradient-9" cx="692.06" cy="720.96" fx="692.06" fy="720.96" r="16.98" xlink:href="#radial-gradient"/>
    <radialGradient id="radial-gradient-10" cx="756.51" cy="682.52" fx="756.51" fy="682.52" r="12.75" xlink:href="#radial-gradient"/>
    <radialGradient id="radial-gradient-11" cx="833.72" cy="760.04" fx="833.72" fy="760.04" r="9.86" xlink:href="#radial-gradient"/>
    <linearGradient id="linear-gradient" x1="634.84" y1="667.49" x2="646.86" y2="667.49" gradientUnits="userSpaceOnUse">
      <stop offset=".83" stop-color="#e6cf91"/>
      <stop offset="1" stop-color="#af802c"/>
    </linearGradient>
    <linearGradient id="linear-gradient-2" x1="608.28" y1="614.68" x2="673.42" y2="614.68" gradientUnits="userSpaceOnUse">
      <stop offset=".85" stop-color="#e6cf91"/>
      <stop offset="1" stop-color="#af802c"/>
    </linearGradient>
    <linearGradient id="linear-gradient-3" x1="701.39" y1="562.52" x2="710.9" y2="562.52" gradientUnits="userSpaceOnUse">
      <stop offset=".81" stop-color="#e6cf91"/>
      <stop offset="1" stop-color="#af802c"/>
    </linearGradient>
    <linearGradient id="linear-gradient-4" x1="644.44" y1="562.52" x2="689.4" y2="562.52" gradientUnits="userSpaceOnUse">
      <stop offset=".89" stop-color="#e6cf91"/>
      <stop offset="1" stop-color="#af802c"/>
    </linearGradient>
    <linearGradient id="linear-gradient-5" x1="602.34" y1="562.52" x2="611.07" y2="562.52" gradientUnits="userSpaceOnUse">
      <stop offset=".73" stop-color="#e6cf91"/>
      <stop offset="1" stop-color="#af802c"/>
    </linearGradient>
    <linearGradient id="linear-gradient-6" x1="574.52" y1="562.52" x2="584.61" y2="562.52" gradientUnits="userSpaceOnUse">
      <stop offset=".76" stop-color="#e6cf91"/>
      <stop offset="1" stop-color="#af802c"/>
    </linearGradient>
    <linearGradient id="linear-gradient-7" x1="670.6" y1="506.98" x2="686.11" y2="506.98" gradientUnits="userSpaceOnUse">
      <stop offset=".81" stop-color="#e6cf91"/>
      <stop offset="1" stop-color="#af802c"/>
    </linearGradient>
    <linearGradient id="linear-gradient-8" x1="644.8" y1="506.98" x2="665.19" y2="506.98" gradientUnits="userSpaceOnUse">
      <stop offset=".79" stop-color="#e6cf91"/>
      <stop offset="1" stop-color="#af802c"/>
    </linearGradient>
    <linearGradient id="linear-gradient-9" x1="623.56" y1="506.98" x2="628.12" y2="506.98" gradientUnits="userSpaceOnUse">
      <stop offset=".57" stop-color="#e6cf91"/>
      <stop offset="1" stop-color="#af802c"/>
    </linearGradient>
    <linearGradient id="linear-gradient-10" x1="604.54" y1="506.98" x2="612.83" y2="506.98" gradientUnits="userSpaceOnUse">
      <stop offset=".72" stop-color="#e6cf91"/>
      <stop offset="1" stop-color="#af802c"/>
    </linearGradient>
    <radialGradient id="radial-gradient-12" cx="640.01" cy="539.81" fx="640.01" fy="539.81" r="521.66" gradientTransform="translate(-.06 87.12) scale(1 .84)" gradientUnits="userSpaceOnUse">
      <stop offset="0" stop-color="#e6cf91"/>
      <stop offset=".33" stop-color="#e4cd8e"/>
      <stop offset=".51" stop-color="#e0c686"/>
      <stop offset=".65" stop-color="#d8bc78"/>
      <stop offset=".78" stop-color="#ceac65"/>
      <stop offset=".89" stop-color="#c0994c"/>
      <stop offset=".99" stop-color="#af812d"/>
      <stop offset="1" stop-color="#af802c"/>
    </radialGradient>
    <radialGradient id="radial-gradient-13" cx="640" cy="1036.4" fx="640" fy="1036.4" r="298.28" gradientTransform="translate(-.06 -3.73)" gradientUnits="userSpaceOnUse">
      <stop offset="0" stop-color="#fff4c2"/>
      <stop offset="1" stop-color="#af802c"/>
    </radialGradient>
    <linearGradient id="linear-gradient-11" x1="415.64" y1="1001.93" x2="438.73" y2="1001.93" gradientUnits="userSpaceOnUse">
      <stop offset="0" stop-color="#b0822d"/>
      <stop offset=".77" stop-color="#e6cf91"/>
    </linearGradient>
    <linearGradient id="linear-gradient-12" x1="15" y1="640" x2="1265" y2="640" gradientUnits="userSpaceOnUse">
      <stop offset="0" stop-color="#f2f2f3"/>
      <stop offset=".33" stop-color="#b0b0b1"/>
      <stop offset=".66" stop-color="#7b7b7b"/>
      <stop offset="1" stop-color="#dad9d9"/>
    </linearGradient>
    <linearGradient id="linear-gradient-13" x1="106.53" y1="640" x2="1173.47" y2="640" xlink:href="#linear-gradient-12"/>
    <linearGradient id="linear-gradient-14" x1="842.39" y1="1017.92" x2="866.18" y2="1017.92" gradientUnits="userSpaceOnUse">
      <stop offset=".15" stop-color="#e6cf91"/>
      <stop offset="1" stop-color="#b68a34"/>
    </linearGradient>
    <linearGradient id="linear-gradient-15" x1="842.74" y1="1001.93" x2="865.83" y2="1001.93" xlink:href="#linear-gradient-14"/>
    <linearGradient id="linear-gradient-16" x1="415.29" y1="1018.38" x2="439.07" y2="1018.38" gradientUnits="userSpaceOnUse">
      <stop offset="0" stop-color="#b68a34"/>
      <stop offset="1" stop-color="#e6cf91"/>
    </linearGradient>
  </defs>
  <ellipse class="cls-30" cx="640" cy="640" rx="575.05" ry="578.35"/>
  <g>
    <polyline class="cls-15" points="454.49 713.22 467.07 724.21 480.01 736.11 506.31 761.95 531.05 788.01 539.84 797.72 543.28 801.98 541.26 800.65 535.73 795.93 517.44 779.33 494.93 758.21 474.76 738.64 454.4 717.69 441.75 703.97 441.48 702.98 443.26 704.01 454.49 713.22"/>
    <polyline class="cls-7" points="450.72 858.42 465.23 861.17 470.73 862.38 463.22 863.02 453.74 863.65 446.01 863.75 439.97 863.31 435.49 862.33 431.78 860.93 429.92 859.83 429.79 858.88 431.28 857.99 434.38 857.22 438.52 857.02 443.9 857.42 450.72 858.42"/>
    <polyline class="cls-3" points="587.28 711.63 591.18 720.72 595.02 731.5 598.82 743.49 592.43 731 583.6 711.91 580.5 704.08 579.31 699.78 579.49 699.36 579.98 699.62 581.78 701.9 587.28 711.63"/>
    <polyline class="cls-19" points="522.23 671.63 523.91 674.62 525.35 676.07 527 676.19 529.31 675.21 531.99 674.18 534.09 673.96 534.58 674.26 534.33 674.78 531.52 676.56 528.51 678.51 527.27 680.08 531.24 689.62 533.78 695.45 534.33 697.87 532.32 695.43 528.73 689.56 523.75 680.97 519.34 682.35 516.23 683.37 514.6 683.46 515.16 682.57 517.07 681.07 521.77 678.41 521.84 676.8 520.51 673.34 518.41 668.5 518.51 667.81 519.24 667.67 520.52 668.83 522.23 671.63"/>
    <polyline class="cls-12" points="449.21 752.52 448.33 754.79 446.79 757.91 446.71 759.19 447.42 760.58 452.19 764.86 456.32 768.38 457.76 770.12 455.5 769.21 450.74 766.32 444.2 762.03 442.12 764.69 440.3 766.46 439.15 766.7 438.99 765.6 440.15 763.37 442.12 760.59 438.95 758.23 437.21 756.53 437.03 755.52 438.17 755.48 440.4 756.68 442.19 757.84 443.34 758.02 444.34 757.04 445.64 754.74 447.01 752.54 448.14 751.39 448.93 751.35 449.21 752.52"/>
    <polygon class="cls-23" points="261.08 900.32 576.29 878.18 454.22 812.67 599.21 857.05 578.77 785.23 624.2 844.62 640.57 690.3 656.92 844.62 702.34 785.23 681.91 857.05 826.91 812.67 704.82 878.18 1020.04 900.32 261.08 900.32"/>
    <polyline class="cls-27" points="826.64 713.22 814.06 724.21 801.11 736.11 774.82 761.95 750.08 788.01 741.27 797.72 737.84 801.98 739.87 800.65 745.39 795.93 763.69 779.33 786.19 758.21 806.37 738.64 826.72 717.69 839.38 703.97 839.65 702.98 837.87 704.01 826.64 713.22"/>
    <polyline class="cls-18" points="830.41 858.42 815.9 861.17 810.4 862.38 817.9 863.02 827.39 863.65 835.1 863.75 841.16 863.31 845.64 862.33 849.35 860.93 851.2 859.83 851.33 858.88 849.85 857.99 846.73 857.22 842.6 857.02 837.23 857.42 830.41 858.42"/>
    <polyline class="cls-5" points="693.85 711.63 689.95 720.72 686.1 731.5 682.31 743.49 688.69 731 697.52 711.91 700.62 704.08 701.82 699.78 701.64 699.36 701.14 699.62 699.35 701.9 693.85 711.63"/>
    <polyline class="cls-11" points="758.89 671.63 757.21 674.62 755.78 676.07 754.13 676.19 751.82 675.21 749.13 674.18 747.03 673.96 746.54 674.26 746.8 674.78 749.6 676.56 752.6 678.51 753.86 680.08 749.89 689.62 747.34 695.45 746.8 697.87 748.81 695.43 752.4 689.56 757.36 680.97 761.77 682.35 764.89 683.37 766.51 683.46 765.96 682.57 764.06 681.07 759.36 678.41 759.29 676.8 760.61 673.34 762.71 668.5 762.62 667.81 761.88 667.67 760.6 668.83 758.89 671.63"/>
    <polyline class="cls-4" points="831.91 752.52 832.8 754.79 834.34 757.91 834.42 759.19 833.71 760.58 828.94 764.86 824.8 768.38 823.36 770.12 825.62 769.21 830.39 766.32 836.93 762.03 839 764.69 840.83 766.46 841.97 766.7 842.13 765.6 840.98 763.37 839 760.59 842.16 758.23 843.92 756.53 844.1 755.52 842.95 755.48 840.72 756.68 838.93 757.84 837.78 758.02 836.79 757.04 835.48 754.74 834.12 752.54 832.98 751.39 832.2 751.35 831.91 752.52"/>
  </g>
  <g>
    <rect class="cls-26" x="634.84" y="652.71" width="12.01" height="29.55"/>
    <polygon class="cls-25" points="673.42 600.25 663.93 629.11 617.77 629.11 608.28 600.25 673.42 600.25"/>
    <rect class="cls-17" x="701.39" y="549.12" width="9.51" height="26.8"/>
    <rect class="cls-29" x="644.44" y="549.12" width="44.96" height="26.8"/>
    <rect class="cls-24" x="602.34" y="549.12" width="8.73" height="26.8"/>
    <rect class="cls-6" x="574.52" y="549.12" width="10.09" height="26.8"/>
    <rect class="cls-22" x="670.6" y="491.73" width="15.51" height="30.51"/>
    <rect class="cls-9" x="644.8" y="491.73" width="20.39" height="30.51"/>
    <rect class="cls-21" x="623.56" y="491.73" width="4.56" height="30.51"/>
    <rect class="cls-16" x="604.54" y="491.73" width="8.29" height="30.51"/>
    <polygon class="cls-28" points="1084.14 644.58 1083.9 655.2 1083.42 665.8 1082.68 676.4 1081.7 686.96 1080.46 697.52 1078.97 708.03 1077.25 718.51 1075.27 728.94 1073.04 739.33 1070.57 749.65 1067.86 759.9 1064.9 770.11 1061.71 780.23 1058.28 790.27 1054.61 800.24 1050.7 810.11 1046.57 819.87 1042.2 829.54 1037.61 839.1 1032.79 848.56 1027.74 857.88 1022.48 867.1 1017.01 876.18 1011.32 885.13 976.87 885.13 982.73 876.77 988.39 868.28 993.82 859.65 999.05 850.89 1004.06 842.01 1008.86 833 1013.44 823.9 1017.79 814.66 1021.93 805.33 1025.83 795.89 1029.5 786.37 1032.94 776.75 1036.14 767.05 1039.11 757.28 1041.83 747.44 1044.33 737.53 1046.58 727.58 1048.58 717.56 1050.34 707.5 1051.86 697.4 1053.13 687.26 1054.16 677.09 1054.93 666.91 1055.46 656.71 1055.74 646.49 1055.77 636.28 1055.56 626.07 1055.1 615.86 1054.39 605.67 1053.43 595.5 1052.23 585.35 1050.78 575.23 1049.09 565.17 1047.15 555.13 1044.96 545.16 1042.54 535.24 1039.88 525.39 1036.97 515.59 1033.83 505.87 1030.46 496.24 1026.85 486.68 1023 477.23 1018.94 467.86 1014.65 458.6 1010.13 449.46 1005.39 440.42 1000.44 431.5 995.27 422.71 989.88 414.04 984.29 405.52 978.48 397.12 972.48 388.89 966.28 380.79 959.88 372.85 953.31 365.08 946.54 357.45 939.58 350.01 932.45 342.74 925.14 335.64 917.66 328.73 910.02 321.99 902.22 315.45 894.25 309.11 886.14 302.96 877.88 297.02 869.48 291.27 860.93 285.74 852.26 280.42 843.47 275.31 834.55 270.42 825.52 265.74 816.37 261.3 807.12 257.08 797.77 253.09 788.32 249.33 778.79 245.81 769.18 242.51 759.49 239.45 749.72 236.64 739.88 234.07 729.99 231.74 720.05 229.64 720.05 466.39 706.6 466.39 706.6 227.22 701.25 226.38 695.89 225.61 695.89 466.39 643.36 466.39 643.36 221.84 634.21 221.86 625.07 222.09 615.94 222.52 606.82 223.15 606.82 466.39 597.96 466.39 597.96 223.97 587.99 225.1 578.07 226.48 578.07 466.39 563.3 466.39 563.3 229 553.3 231.01 543.35 233.26 533.46 235.79 523.62 238.53 513.87 241.52 504.19 244.75 494.59 248.22 485.08 251.92 475.66 255.87 466.34 260.04 457.13 264.43 448.03 269.06 439.04 273.91 430.17 278.98 421.43 284.26 412.83 289.76 404.34 295.47 396 301.38 387.82 307.5 379.79 313.83 371.91 320.35 364.2 327.05 356.65 333.95 349.27 341.03 342.07 348.29 335.04 355.74 328.2 363.35 321.55 371.12 315.09 379.05 308.82 387.16 302.75 395.39 296.88 403.79 291.23 412.33 285.78 420.99 280.55 429.8 275.53 438.73 270.73 447.79 266.15 456.96 261.8 466.23 257.68 475.62 253.79 485.1 250.12 494.67 246.69 504.33 243.5 514.07 240.56 523.9 237.85 533.78 235.38 543.74 233.15 553.75 231.17 563.81 229.43 573.92 227.94 584.07 226.7 594.24 225.71 604.45 224.97 614.69 224.48 624.93 224.24 635.19 224.24 645.45 224.5 655.7 225.01 665.95 225.77 676.18 226.77 686.39 228.02 696.57 229.53 706.72 231.28 716.82 233.28 726.87 235.52 736.89 238.01 746.84 240.73 756.73 243.7 766.53 246.91 776.27 250.35 785.93 254.03 795.51 257.93 804.99 262.07 814.36 266.43 823.63 271.03 832.78 275.84 841.83 280.87 850.75 286.11 859.55 291.58 868.21 297.25 876.74 303.14 885.13 268.68 885.13 262.99 876.18 257.52 867.1 252.26 857.88 247.22 848.56 242.4 839.1 237.81 829.54 233.44 819.87 229.3 810.11 225.39 800.24 221.73 790.27 218.29 780.23 215.1 770.11 212.15 759.9 209.44 749.65 206.96 739.33 204.74 728.94 202.76 718.51 201.03 708.03 199.54 697.52 198.31 686.96 197.32 676.4 196.58 665.8 196.1 655.2 195.87 644.58 195.89 633.96 196.15 623.33 196.67 612.73 197.44 602.13 198.46 591.57 199.73 581.02 201.25 570.52 203.02 560.04 205.03 549.62 207.29 539.25 209.79 528.93 212.54 518.68 215.53 508.49 218.76 498.37 222.22 488.34 225.93 478.4 229.86 468.55 234.03 458.78 238.43 449.12 243.05 439.58 247.9 430.14 252.97 420.83 258.26 411.64 263.77 402.57 269.48 393.65 275.41 384.86 281.54 376.21 287.88 367.72 294.42 359.37 301.16 351.2 308.08 343.17 315.19 335.33 322.48 327.64 329.95 320.14 337.59 312.81 345.42 305.67 353.4 298.72 361.55 291.96 369.85 285.42 378.31 279.06 386.91 272.89 395.66 266.96 404.55 261.22 413.58 255.69 422.73 250.39 432 245.3 441.38 240.45 450.88 235.81 460.49 231.4 470.2 227.22 480 223.28 489.89 219.57 499.88 216.09 509.93 212.88 520.06 209.89 530.28 207.13 540.54 204.63 550.86 202.38 561.22 200.37 571.63 198.61 582.09 197.1 592.57 195.85 603.08 194.83 613.61 194.08 624.16 193.57 634.71 193.31 645.29 193.31 655.84 193.57 666.39 194.08 676.92 194.83 687.43 195.85 697.91 197.1 708.37 198.61 718.78 200.37 729.15 202.38 739.46 204.63 749.73 207.13 759.94 209.89 770.07 212.88 780.13 216.09 790.11 219.57 800 223.28 809.8 227.22 819.51 231.4 829.13 235.81 838.63 240.45 848.01 245.3 857.28 250.39 866.42 255.69 875.45 261.22 884.34 266.96 893.09 272.89 901.7 279.06 910.15 285.42 918.46 291.96 926.6 298.72 934.59 305.67 942.41 312.81 950.05 320.14 957.52 327.64 964.82 335.33 971.93 343.17 978.85 351.2 985.58 359.37 992.12 367.72 998.46 376.21 1004.6 384.86 1010.52 393.65 1016.24 402.57 1021.74 411.64 1027.03 420.83 1032.1 430.14 1036.95 439.58 1041.57 449.12 1045.97 458.78 1050.14 468.55 1054.08 478.4 1057.78 488.34 1061.25 498.37 1064.48 508.49 1067.46 518.68 1070.22 528.93 1072.72 539.25 1074.98 549.62 1076.99 560.04 1078.75 570.52 1080.27 581.02 1081.54 591.57 1082.56 602.13 1083.33 612.73 1083.85 623.33 1084.12 633.96 1084.14 644.58"/>
  </g>
  <g>
    <path class="cls-20" d="M231.59,932.38l6.51,9.05,6.72,8.91,6.91,8.75,7.1,8.6,7.28,8.43,7.48,8.28,7.65,8.1,7.83,7.94,8,7.75,8.18,7.56,8.33,7.39,8.51,7.2,8.65,7.01,8.81,6.81,8.96,6.61,9.1,6.42,9.24,6.22,9.38,5.99,9.5,5.79,9.63,5.56,9.75,5.36,9.87,5.14,9.99,4.92,10.08,4.7,10.18,4.46,10.29,4.23,10.37,4.01,10.46,3.78,10.54,3.53,10.62,3.3,10.68,3.07,10.76,2.83,10.81,2.58,10.86,2.34,10.92,2.09,10.96,1.86,10.99,1.6,11.03,1.37,11.06,1.11,11.07.88,11.1.62,11.11.37,11.11.12,11.1-.12,11.11-.37,11.1-.62,11.08-.88,11.05-1.11,11.03-1.37,11-1.6,10.95-1.86,10.92-2.09,10.87-2.34,10.8-2.58,10.76-2.83,10.69-3.07,10.61-3.3,10.55-3.53,10.45-3.78,10.38-4.01,10.28-4.23,10.18-4.46,10.09-4.7,9.98-4.92,9.87-5.14,9.75-5.36,9.63-5.56,9.5-5.79,9.38-5.99,9.24-6.22,9.1-6.42,8.96-6.61,8.81-6.81,8.66-7.01,8.5-7.2,8.34-7.39,8.17-7.56,8.01-7.75,7.82-7.94,7.65-8.1,7.49-8.28,7.28-8.43,7.1-8.6,6.91-8.75,6.72-8.91,6.5-9.05H231.59ZM574.44,1073.28h-18.12v-51.2l-.1-.52-.28-.45-.44-.32-.52-.13-.53.07-.46.28-.34.41-12.59,24-.62.93-.78.8-.93.63-1.03.42-1.1.22h-1.11l-1.1-.22-1.03-.42-.93-.63-.79-.8-.61-.93-12.59-24-.33-.41-.47-.28-.53-.07-.52.13-.43.32-.29.45-.1.52v51.2h-18.12v-79.51h22.22l14.92,28.42.32.4.43.26.5.09.5-.09.45-.26.31-.4,14.91-28.42h22.23v79.51ZM675.51,1073.28h-18.12v-51.2l-.1-.52-.29-.45-.43-.32-.52-.13-.54.07-.46.28-.33.41-12.59,24-.62.93-.79.8-.92.63-1.04.42-1.09.22h-1.12l-1.09-.22-1.04-.42-.92-.63-.79-.8-.62-.93-12.58-24-.34-.41-.46-.28-.54-.07-.51.13-.44.32-.28.45-.1.52v51.2h-18.12v-79.51h22.23l14.91,28.42.31.4.44.26.5.09.51-.09.43-.26.32-.4,14.91-28.42h22.23v79.51ZM776.43,1073.28h-26.65l-8.18-39.26-8.17,39.26h-26.67l-11.96-79.51h18.61l9.57,62.51.15.36.29.26.37.1.4-.08.3-.24.17-.36,10.51-50.48h12.86l10.51,50.48.17.36.31.24.38.08.38-.1.29-.26.15-.36,9.56-62.51h18.62l-11.97,79.51ZM937.81,997.39l-.73,4.57-1.22,4.73-1.65,4.69-2,4.46-2.31,4.03-2.57,3.44-3.15,2.95-4.93,3.79-14,9.41-17.47,10.51-18.5,10.06-14.55,6.99-17.21,7.72-25.33,10.03,18.22-9.22,12.54-6.34,12.57-6.85,24.06-14.52,10.93-7.3,9.81-7.09,8.41-6.7,6.73-6.12,4.13-4.75,3.41-5.2,2.48-5.34,1.39-5.15.1-4.67-.64-5.72-.89-3.65-1.32-3.46-1.72-3.25-2.09-3-2.46-2.74-2.8-2.44-3.12-2.11-3.43-1.77-2.15-.62-5.3-.48H380.41l-5.29.48-2.17.62-3.42,1.77-3.11,2.11-2.81,2.44-2.46,2.74-2.09,3-1.72,3.25-1.31,3.46-.89,3.65-.64,5.72.09,4.67,1.39,5.15,2.49,5.34,3.4,5.2,4.13,4.75,6.73,6.12,8.42,6.7,9.81,7.09,10.93,7.3,24.05,14.52,12.56,6.85,12.55,6.34,18.22,9.22-25.33-10.03-17.22-7.72-14.54-6.99-18.49-10.06-17.48-10.51-14-9.41-4.93-3.79-3.14-2.95-2.57-3.44-2.32-4.03-2.01-4.46-1.63-4.69-1.23-4.73-.73-4.57-.19-4.23.39-3.72,1.46-5.69,1.86-5.18,2.29-4.7,2.74-4.24,3.2-3.8,3.68-3.39,4.18-3.01,4.69-2.65,7.61-3.77h530.35l7.6,3.77,4.7,2.65,4.17,3.01,3.69,3.39,3.19,3.8,2.75,4.24,2.29,4.7,1.85,5.18,1.46,5.69.4,3.72-.2,4.23ZM827.08,1009.92l13.6-23.7h27.21l13.6,23.7-13.6,23.71h-27.21l-13.6-23.71ZM454.38,1009.92l-13.6,23.71h-27.2l-13.61-23.71,13.61-23.7h27.2l13.6,23.7Z"/>
    <polygon class="cls-14" points="438.73 1005.03 438.73 1005.95 415.64 1005.95 415.64 1005.03 415.75 1003.8 416.07 1002.6 416.59 1001.46 417.29 1000.46 418.17 999.57 419.18 998.86 420.31 998.34 421.5 998.01 422.73 997.9 431.64 997.9 432.86 998.01 434.06 998.34 435.18 998.86 436.18 999.57 437.06 1000.46 437.77 1001.46 438.29 1002.6 438.62 1003.8 438.73 1005.03"/>
  </g>
  <path class="cls-13" d="M1264.41,606.69l-.12-1.69-.32-1.66-.51-1.62-.69-1.55-.87-1.45-1.04-1.34-1.18-1.2-1.33-1.06-43.03-30.32-1.44-10.36-1.62-10.33-1.79-10.32-1.99-10.27-2.17-10.23,30.61-43.96.89-1.48.72-1.56.52-1.65.32-1.7.11-1.73-.09-1.71-.3-1.7-.5-1.66-23.17-62.24-.69-1.55-.85-1.45-1.02-1.35-1.19-1.22-1.3-1.06-1.44-.9-1.52-.73-1.6-.53-50.75-13.68-4.87-9.24-5.03-9.16-5.21-9.05-5.35-8.97-5.52-8.88,13.81-51.84.35-1.69.13-1.73-.07-1.71-.27-1.71-.48-1.66-.68-1.58-.86-1.5-1.04-1.39-42.93-50.51-1.16-1.23-1.31-1.07-1.42-.91-1.52-.74-1.59-.54-1.65-.35-1.67-.15-1.69.05-52.34,4.6-7.73-7.01-7.84-6.87-7.96-6.74-8.09-6.58-8.2-6.45-4.65-53.46-.26-1.71-.46-1.67-.65-1.59-.83-1.51-1.02-1.4-1.17-1.25-1.32-1.12-1.45-.94-57.52-32.71-1.52-.74-1.58-.55-1.65-.37-1.68-.17-1.69.04-1.66.23-1.63.44-1.57.61-47.61,22.33-9.64-3.92-9.71-3.76-9.77-3.58-9.85-3.41-9.89-3.23-22.56-48.64-.81-1.53-.99-1.4-1.16-1.28-1.3-1.13-1.43-.97-1.54-.77-1.6-.58-1.68-.38-65.18-10.95-1.68-.18-1.68.02-1.67.22-1.64.42-1.56.6-1.49.8-1.39.97-1.25,1.13-37.16,37.37-10.4-.38-10.4-.19h-10.4s-10.41.17-10.41.17l-10.39.38-37.73-37.96-1.29-1.14-1.41-.98-1.52-.81-1.61-.6-1.67-.41-1.69-.2h-1.72l-1.71.21-64.98,12.13-1.63.4-1.57.6-1.5.78-1.39.96-1.27,1.12-1.12,1.26-.98,1.39-.8,1.49-22.21,47.9-9.9,3.22-9.83,3.4-9.78,3.57-9.71,3.75-9.65,3.92-48.36-22.68-1.6-.63-1.66-.43-1.7-.23-1.72-.02-1.71.18-1.66.39-1.61.6-1.54.78-56.93,33.75-1.4.95-1.27,1.11-1.14,1.25-.98,1.38-.82,1.49-.63,1.57-.44,1.63-.24,1.68-4.58,52.65-8.21,6.43-8.09,6.59-7.97,6.72-7.86,6.87-7.73,7-53.15-4.68-1.72-.04-1.7.16-1.68.36-1.63.57-1.53.75-1.44.96-1.32,1.11-1.16,1.27-42.02,51.3-.99,1.37-.83,1.48-.64,1.57-.45,1.63-.26,1.67-.06,1.7.14,1.68.34,1.66,13.6,51.06-5.53,8.87-5.36,8.95-5.21,9.06-5.04,9.15-4.88,9.24-51.55,13.89-1.62.54-1.56.74-1.45.93-1.32,1.09-1.2,1.26-1.02,1.37-.85,1.51-.68,1.59-22.03,62.65-.47,1.63-.27,1.67-.07,1.7.13,1.68.32,1.67.52,1.61.7,1.54.89,1.45,30.14,43.28-2.18,10.24-1.99,10.27-1.82,10.3-1.63,10.34-1.44,10.36-43.71,30.79-1.35,1.08-1.2,1.23-1.05,1.37-.87,1.49-.69,1.57-.5,1.66-.3,1.7-.09,1.72.61,66.46.11,1.68.31,1.67.51,1.62.69,1.54.88,1.46,1.03,1.34,1.19,1.2,1.32,1.06,43.04,30.31,1.43,10.37,1.62,10.33,1.8,10.32,1.99,10.26,2.16,10.24-30.61,43.96-.89,1.48-.71,1.56-.53,1.65-.32,1.7-.11,1.71.09,1.73.3,1.7.51,1.66,23.17,62.24.68,1.55.85,1.45,1.03,1.35,1.18,1.21,1.31,1.07,1.43.9,1.52.73,1.61.53,50.74,13.68,4.87,9.24,5.04,9.15,5.2,9.06,5.35,8.97,5.53,8.88-13.81,51.84-.36,1.69-.13,1.71.07,1.73.28,1.71.48,1.66.67,1.58.86,1.5,1.04,1.37,42.93,50.53,1.17,1.22,1.3,1.08,1.42.91,1.53.74,1.58.54,1.65.35,1.68.15,1.68-.05,52.35-4.61,7.72,7.02,7.84,6.87,7.97,6.73,8.08,6.59,8.21,6.44,4.65,53.47.25,1.71.46,1.67.65,1.59.84,1.51,1.01,1.39,1.18,1.26,1.31,1.11,1.45.95,57.52,32.71,1.52.74,1.59.55,1.64.36,1.68.18,1.69-.04,1.67-.24,1.62-.43,1.57-.62,47.61-22.34,9.64,3.94,9.72,3.76,9.77,3.58,9.84,3.41,9.89,3.23,22.56,48.64.81,1.51,1,1.42,1.15,1.28,1.31,1.13,1.42.96,1.54.78,1.61.58,1.67.38,65.18,10.95,1.68.18,1.69-.02,1.66-.22,1.64-.42,1.57-.61,1.48-.79,1.39-.97,1.26-1.13,37.15-37.37,10.4.37,10.4.2h10.41s10.4-.18,10.4-.18l10.4-.37,37.73,37.95,1.28,1.15,1.41.98,1.53.81,1.6.6,1.67.41,1.7.2h1.71l1.71-.21,64.98-12.13,1.64-.4,1.56-.61,1.5-.77,1.4-.96,1.26-1.13,1.13-1.25.97-1.39.8-1.49,22.21-47.9,9.9-3.22,9.83-3.4,9.78-3.57,9.72-3.75,9.65-3.92,48.35,22.68,1.6.62,1.66.44,1.71.23,1.71.02,1.71-.18,1.67-.39,1.6-.6,1.54-.78,56.92-33.75,1.4-.95,1.28-1.11,1.13-1.26.98-1.37.82-1.49.63-1.57.44-1.63.24-1.68,4.58-52.64,8.21-6.43,8.09-6.59,7.98-6.72,7.85-6.87,7.73-7,53.15,4.68,1.72.04,1.71-.16,1.67-.36,1.63-.57,1.54-.76,1.43-.95,1.32-1.11,1.16-1.27,42.02-51.3,1-1.37.82-1.48.64-1.57.46-1.63.26-1.67.06-1.7-.14-1.69-.35-1.66-13.59-51.05,5.52-8.87,5.36-8.95,5.22-9.06,5.04-9.15,4.88-9.24,51.54-13.89,1.63-.54,1.55-.75,1.45-.92,1.32-1.09,1.2-1.26,1.02-1.39.86-1.49.67-1.59,22.03-62.66.48-1.62.27-1.67.07-1.7-.13-1.68-.32-1.67-.53-1.61-.7-1.54-.88-1.45-30.14-43.28,2.18-10.24,1.99-10.27,1.81-10.31,1.63-10.33,1.45-10.36,43.7-30.79,1.35-1.08,1.2-1.23,1.05-1.37.87-1.49.7-1.57.5-1.66.29-1.7.09-1.72-.59-66.46ZM1188.36,651.78l-.37,11.79-.62,11.77-.88,11.76-1.13,11.74-1.37,11.71-1.62,11.68-1.87,11.64-2.12,11.6-2.36,11.55-2.61,11.5-2.85,11.44-3.1,11.37-3.33,11.31-3.58,11.21-3.81,11.15-4.05,11.06-4.28,10.97-4.52,10.88-4.74,10.78-4.97,10.67-5.2,10.57-5.43,10.45-5.63,10.34-5.86,10.2-6.08,10.08-6.29,9.95-6.5,9.82-6.7,9.68-6.91,9.52-7.11,9.37-7.32,9.21-7.49,9.05-7.69,8.9-7.88,8.73-8.07,8.56-8.24,8.37-8.42,8.21-8.6,8.02-8.75,7.83-8.93,7.65-9.08,7.44-9.24,7.25-9.4,7.05-9.54,6.85-9.68,6.64-9.82,6.43-9.97,6.23-10.08,6-10.21,5.78-10.34,5.56-10.44,5.34-10.57,5.12-10.66,4.88-10.77,4.66-10.87,4.43-10.95,4.19-11.04,3.94-11.13,3.72-11.2,3.47-11.26,3.24-11.34,2.99-11.4,2.75-11.46,2.5-11.5,2.25-11.55,2-11.59,1.76-11.63,1.51-11.65,1.26-11.68,1.01-11.7.75-11.71.5-11.71.25h-11.73l-11.71-.25-11.71-.5-11.7-.75-11.68-1.01-11.65-1.26-11.63-1.51-11.59-1.76-11.55-2-11.5-2.25-11.46-2.5-11.39-2.75-11.34-2.99-11.27-3.24-11.2-3.47-11.13-3.72-11.03-3.94-10.96-4.19-10.87-4.43-10.76-4.66-10.67-4.88-10.56-5.12-10.45-5.34-10.33-5.56-10.22-5.78-10.08-6-9.96-6.23-9.82-6.43-9.69-6.64-9.54-6.85-9.4-7.05-9.24-7.25-9.07-7.44-8.93-7.65-8.76-7.83-8.6-8.02-8.41-8.21-8.25-8.37-8.06-8.56-7.89-8.73-7.69-8.9-7.49-9.05-7.31-9.21-7.11-9.37-6.91-9.52-6.71-9.68-6.5-9.82-6.29-9.95-6.07-10.08-5.87-10.2-5.63-10.34-5.42-10.45-5.21-10.57-4.97-10.67-4.74-10.78-4.52-10.88-4.28-10.97-4.04-11.06-3.82-11.15-3.57-11.21-3.34-11.31-3.09-11.37-2.85-11.44-2.62-11.5-2.36-11.55-2.11-11.6-1.87-11.64-1.63-11.68-1.37-11.71-1.13-11.74-.87-11.76-.63-11.77-.37-11.79-.13-11.79.13-11.79.37-11.78.63-11.77.87-11.76,1.13-11.74,1.37-11.71,1.63-11.68,1.87-11.63,2.11-11.6,2.36-11.55,2.62-11.5,2.85-11.44,3.09-11.37,3.34-11.31,3.57-11.22,3.82-11.14,4.04-11.06,4.28-10.98,4.52-10.87,4.74-10.78,4.97-10.67,5.21-10.57,5.42-10.45,5.63-10.34,5.87-10.2,6.07-10.08,6.29-9.96,6.5-9.81,6.71-9.68,6.91-9.52,7.11-9.37,7.31-9.22,7.49-9.05,7.69-8.89,7.89-8.73,8.06-8.56,8.25-8.37,8.41-8.21,8.6-8.02,8.76-7.84,8.93-7.64,9.07-7.44,9.24-7.25,9.4-7.05,9.54-6.85,9.69-6.65,9.82-6.43,9.96-6.22,10.08-6,10.22-5.78,10.33-5.57,10.45-5.33,10.56-5.12,10.67-4.89,10.76-4.66,10.87-4.42,10.96-4.19,11.03-3.95,11.13-3.71,11.2-3.47,11.27-3.24,11.34-2.99,11.39-2.75,11.46-2.5,11.5-2.25,11.55-2,11.59-1.76,11.63-1.52,11.65-1.25,11.68-1.01,11.7-.76,11.71-.49,11.71-.25h11.73l11.71.25,11.71.49,11.7.76,11.68,1.01,11.65,1.25,11.63,1.52,11.59,1.76,11.55,2,11.5,2.25,11.46,2.5,11.4,2.75,11.34,2.99,11.26,3.24,11.2,3.47,11.13,3.71,11.04,3.95,10.95,4.19,10.87,4.42,10.77,4.66,10.66,4.89,10.57,5.12,10.44,5.33,10.34,5.57,10.21,5.78,10.08,6,9.97,6.22,9.82,6.43,9.68,6.65,9.54,6.85,9.4,7.05,9.24,7.25,9.08,7.44,8.93,7.64,8.75,7.84,8.6,8.02,8.42,8.21,8.24,8.37,8.07,8.56,7.88,8.73,7.69,8.89,7.49,9.05,7.32,9.22,7.11,9.37,6.91,9.52,6.7,9.68,6.5,9.81,6.29,9.96,6.08,10.08,5.86,10.2,5.63,10.34,5.43,10.45,5.2,10.57,4.97,10.67,4.74,10.78,4.52,10.87,4.28,10.98,4.05,11.06,3.81,11.14,3.58,11.22,3.33,11.31,3.1,11.37,2.85,11.44,2.61,11.5,2.36,11.55,2.12,11.6,1.87,11.63,1.62,11.68,1.37,11.71,1.13,11.74.88,11.76.62,11.77.37,11.78.13,11.79-.13,11.79Z"/>
  <path class="cls-10" d="M1173.21,622.5l-.5-11.66-.76-11.64-1.01-11.63-1.26-11.6-1.5-11.56-1.76-11.53-2.01-11.5-2.26-11.44-2.5-11.39-2.74-11.33-2.99-11.26-3.25-11.2-3.47-11.13-3.72-11.05-3.95-10.97-4.19-10.88-4.42-10.78-4.66-10.69-4.88-10.57-5.11-10.47-5.35-10.36-5.55-10.23-5.78-10.13-6.01-9.97-6.22-9.85-6.41-9.71-6.63-9.57-6.84-9.42-7.04-9.28-7.24-9.11-7.44-8.96-7.62-8.78-7.82-8.63-7.99-8.44-8.18-8.27-8.36-8.09-8.53-7.91-8.7-7.71-8.86-7.52-9.02-7.33-9.18-7.14-9.33-6.92-9.47-6.72-9.63-6.52-9.76-6.3-9.9-6.09-10.03-5.87-10.14-5.65-10.27-5.42-10.38-5.2-10.49-4.97-10.6-4.74-10.69-4.51-10.79-4.28-10.88-4.03-10.97-3.79-11.05-3.56-11.12-3.31-11.19-3.07-11.26-2.83-11.32-2.57-11.36-2.33-11.41-2.08-11.45-1.82-11.5-1.59-11.52-1.33-11.55-1.07-11.57-.83-11.58-.57-11.6-.31-11.59-.06-11.59.19-11.59.44-11.58.71-11.56.94-11.54,1.21-11.5,1.45-11.48,1.71-11.43,1.96-11.4,2.2-11.33,2.45-11.28,2.71-11.23,2.94-11.16,3.19-11.08,3.44-11.01,3.68-10.94,3.91-10.82,4.16-10.75,4.4-10.64,4.62-10.55,4.86-10.43,5.08-10.33,5.31-10.2,5.53-10.09,5.77-9.96,5.97-9.84,6.2-9.69,6.41-9.55,6.61-9.4,6.83-9.25,7.02-9.1,7.23-8.94,7.43-8.78,7.63-8.62,7.81-8.44,7.99-8.27,8.19-8.08,8.35-7.91,8.55-7.72,8.71-7.53,8.86-7.34,9.04-7.14,9.19-6.93,9.35-6.74,9.49-6.53,9.64-6.31,9.78-6.11,9.92-5.9,10.06-5.66,10.17-5.45,10.29-5.23,10.42-5,10.52-4.77,10.64-4.55,10.72-4.29,10.84-4.08,10.92-3.83,11.01-3.6,11.09-3.36,11.16-3.11,11.24-2.86,11.3-2.63,11.36-2.38,11.41-2.13,11.46-1.88,11.52-1.63,11.55-1.38,11.59-1.14,11.61-.88,11.63-.62,11.66-.39,11.66-.12,11.65.12,11.67.39,11.66.62,11.66.88,11.63,1.14,11.61,1.38,11.59,1.63,11.55,1.88,11.52,2.13,11.45,2.38,11.42,2.63,11.36,2.86,11.3,3.11,11.24,3.36,11.15,3.6,11.1,3.83,11.01,4.08,10.92,4.29,10.84,4.55,10.72,4.77,10.64,5,10.52,5.23,10.41,5.45,10.3,5.66,10.17,5.9,10.05,6.11,9.93,6.31,9.77,6.53,9.64,6.74,9.5,6.93,9.35,7.14,9.19,7.34,9.04,7.53,8.86,7.72,8.71,7.91,8.55,8.08,8.35,8.27,8.18,8.44,8,8.62,7.81,8.78,7.62,8.94,7.44,9.1,7.23,9.25,7.02,9.4,6.82,9.55,6.62,9.69,6.41,9.84,6.2,9.96,5.97,10.09,5.76,10.2,5.54,10.33,5.3,10.43,5.09,10.55,4.86,10.64,4.62,10.75,4.4,10.82,4.16,10.94,3.9,11.01,3.69,11.08,3.43,11.16,3.2,11.23,2.94,11.28,2.7,11.33,2.46,11.4,2.2,11.43,1.96,11.48,1.71,11.5,1.45,11.54,1.21,11.56.94,11.58.71,11.59.44,11.59.19,11.59-.06,11.6-.31,11.58-.58,11.57-.82,11.55-1.07,11.52-1.34,11.5-1.58,11.45-1.82,11.41-2.08,11.36-2.33,11.32-2.57,11.26-2.84,11.19-3.06,11.12-3.31,11.05-3.56,10.97-3.79,10.88-4.03,10.79-4.28,10.69-4.51,10.6-4.74,10.49-4.97,10.38-5.2,10.27-5.42,10.14-5.65,10.03-5.87,9.9-6.09,9.76-6.3,9.63-6.52,9.47-6.72,9.33-6.92,9.18-7.14,9.02-7.33,8.86-7.52,8.7-7.71,8.53-7.91,8.36-8.09,8.18-8.28,7.99-8.43,7.82-8.63,7.62-8.79,7.44-8.95,7.24-9.11,7.04-9.28,6.84-9.42,6.63-9.57,6.41-9.71,6.22-9.85,6.01-9.99,5.78-10.11,5.55-10.23,5.35-10.37,5.11-10.46,4.88-10.57,4.66-10.69,4.42-10.79,4.19-10.87,3.95-10.97,3.72-11.05,3.47-11.13,3.25-11.2,2.99-11.27,2.74-11.33,2.5-11.38,2.26-11.44,2.01-11.5,1.76-11.53,1.5-11.57,1.26-11.6,1.01-11.62.76-11.64.5-11.66.25-11.67v-11.66l-.25-11.67ZM1154.85,651.45l-.37,11.45-.63,11.44-.89,11.42-1.13,11.4-1.38,11.36-1.63,11.34-1.87,11.3-2.14,11.25-2.38,11.2-2.62,11.15-2.86,11.1-3.11,11.01-3.36,10.96-3.59,10.88-3.83,10.79-4.07,10.7-4.3,10.6-4.53,10.52-4.77,10.4-4.99,10.3-5.22,10.2-5.44,10.07-5.65,9.93-5.88,9.81-6.1,9.69-6.3,9.54-6.51,9.41-6.71,9.25-6.92,9.1-7.12,8.95-7.31,8.79-7.52,8.62-7.68,8.45-7.87,8.27-8.06,8.11-8.23,7.92-8.41,7.73-8.57,7.54-8.74,7.37-8.9,7.16-9.05,6.94-9.19,6.76-9.34,6.55-9.49,6.35-9.64,6.12-9.76,5.91-9.89,5.69-10.01,5.48-10.12,5.24-10.25,5.02-10.34,4.79-10.46,4.56-10.54,4.33-10.64,4.09-10.72,3.85-10.82,3.62-10.88,3.37-10.97,3.12-11.03,2.89-11.08,2.65-11.15,2.39-11.2,2.14-11.24,1.89-11.27,1.64-11.31,1.4-11.34,1.14-11.36.88-11.38.64-11.39.38-11.38.13-11.39-.13-11.39-.38-11.38-.64-11.36-.88-11.33-1.14-11.31-1.4-11.28-1.64-11.24-1.89-11.2-2.14-11.14-2.39-11.09-2.65-11.03-2.89-10.96-3.12-10.89-3.37-10.82-3.62-10.72-3.85-10.64-4.09-10.54-4.33-10.46-4.56-10.34-4.79-10.24-5.02-10.13-5.24-10.01-5.48-9.89-5.69-9.76-5.91-9.63-6.12-9.49-6.35-9.34-6.55-9.2-6.76-9.05-6.94-8.9-7.16-8.73-7.37-8.58-7.54-8.41-7.73-8.23-7.92-8.06-8.11-7.87-8.27-7.68-8.45-7.51-8.62-7.31-8.79-7.12-8.95-6.92-9.1-6.71-9.25-6.52-9.41-6.3-9.54-6.09-9.69-5.89-9.81-5.65-9.93-5.43-10.07-5.23-10.2-4.99-10.3-4.77-10.4-4.53-10.52-4.3-10.6-4.06-10.7-3.84-10.79-3.58-10.88-3.37-10.96-3.1-11.01-2.86-11.1-2.63-11.15-2.38-11.2-2.13-11.25-1.87-11.3-1.64-11.34-1.38-11.36-1.13-11.4-.88-11.42-.65-11.44-.37-11.45-.12-11.46.12-11.44.37-11.45.65-11.44.88-11.42,1.13-11.4,1.38-11.36,1.64-11.34,1.87-11.3,2.13-11.25,2.38-11.21,2.63-11.14,2.86-11.1,3.1-11.02,3.37-10.95,3.58-10.88,3.84-10.79,4.06-10.7,4.3-10.61,4.53-10.51,4.77-10.4,4.99-10.3,5.23-10.2,5.43-10.07,5.65-9.93,5.89-9.82,6.09-9.68,6.3-9.54,6.52-9.41,6.71-9.25,6.92-9.1,7.12-8.95,7.31-8.79,7.51-8.62,7.68-8.45,7.87-8.27,8.06-8.11,8.23-7.92,8.41-7.73,8.58-7.55,8.73-7.36,8.9-7.16,9.05-6.95,9.2-6.75,9.34-6.55,9.49-6.35,9.63-6.12,9.76-5.91,9.89-5.69,10.01-5.48,10.13-5.24,10.24-5.02,10.34-4.79,10.46-4.56,10.54-4.33,10.64-4.1,10.72-3.84,10.82-3.62,10.89-3.37,10.96-3.12,11.03-2.9,11.09-2.64,11.14-2.39,11.2-2.14,11.24-1.89,11.28-1.64,11.31-1.4,11.33-1.14,11.36-.89,11.38-.63,11.39-.37,11.39-.13,11.38.13,11.39.37,11.38.63,11.36.89,11.34,1.14,11.31,1.4,11.27,1.64,11.24,1.89,11.2,2.14,11.15,2.39,11.08,2.64,11.03,2.9,10.97,3.12,10.88,3.37,10.82,3.62,10.72,3.84,10.64,4.1,10.54,4.33,10.46,4.56,10.34,4.79,10.25,5.02,10.12,5.24,10.01,5.48,9.89,5.69,9.76,5.91,9.64,6.12,9.49,6.35,9.34,6.55,9.19,6.75,9.05,6.95,8.9,7.16,8.74,7.36,8.57,7.55,8.41,7.73,8.23,7.92,8.06,8.11,7.87,8.27,7.68,8.45,7.52,8.62,7.31,8.79,7.12,8.95,6.92,9.1,6.71,9.25,6.51,9.41,6.3,9.54,6.1,9.68,5.88,9.82,5.65,9.93,5.44,10.07,5.22,10.2,4.99,10.3,4.77,10.4,4.53,10.51,4.3,10.61,4.07,10.7,3.83,10.79,3.59,10.88,3.36,10.95,3.11,11.02,2.86,11.1,2.62,11.14,2.38,11.21,2.14,11.25,1.87,11.3,1.63,11.34,1.38,11.36,1.13,11.4.89,11.42.63,11.44.37,11.45.12,11.44-.12,11.46Z"/>
  <path class="cls-2" d="M865.47,1017.67c.45-.88.61-1.83.61-1.83.1-.59.1-1.15.08-1.64l-23.77-.25c0,.55.04,1.18.18,1.84,0,0,.24,1.07.79,2.02,1.11,1.93,3.3,2.92,3.97,3.21,2.02.88,3.75.89,7.13.87,3.47-.02,5.25-.05,7.33-1.03.45-.21,2.72-1.32,3.68-3.19Z"/>
  <polygon class="cls-1" points="865.83 1005.03 865.83 1005.95 842.74 1005.95 842.74 1005.03 842.85 1003.8 843.17 1002.6 843.69 1001.46 844.39 1000.46 845.27 999.57 846.28 998.86 847.41 998.34 848.6 998.01 849.83 997.9 858.74 997.9 859.96 998.01 861.16 998.34 862.28 998.86 863.28 999.57 864.16 1000.46 864.87 1001.46 865.39 1002.6 865.72 1003.8 865.83 1005.03"/>
  <path class="cls-8" d="M438.37,1018.12c.45-.88.61-1.83.61-1.83.1-.59.1-1.15.08-1.64l-23.77-.25c0,.55.04,1.18.18,1.84,0,0,.24,1.07.79,2.02,1.11,1.93,3.3,2.92,3.97,3.21,2.02.88,3.75.89,7.13.87,3.47-.02,5.25-.05,7.33-1.03.45-.21,2.72-1.32,3.68-3.19Z"/>
</svg>